# AST/ASF file generated using VICON BodyLanguage
# -----------------------------------------------
:version 1.10
:name VICON
:units
  mass 1.0
  length 0.45
  angle deg
:documentation
   .ast/.asf automatically generated from VICON data using
   VICON BodyBuilder and BodyLanguage model FoxedUp or BRILLIANT.MOD
:root
   order TX TY TZ RX RY RZ
   axis XYZ
   position 0 0 0  
   orientation 0 0 0 
:bonedata
  begin
     id 1 
     name lhipjoint
     direction 0.535335 -0.74333 0.401095 
     length 2.04549 
     axis 0 0 0  XYZ
  end
  begin
     id 2 
     name lfemur
     direction 0.34202 -0.939693 0  
     length 6.95643  
     axis 0 0 20  XYZ
    dof rx ry rz
    limits (-160.0 20.0)
           (-70.0 70.0)
           (-60.0 70.0)
  end
  begin
     id 3 
     name ltibia
     direction 0.34192 -0.939729 0   
     length 5.55969   
     axis 0 0 20   XYZ
    dof rx
    limits (-10.0 170.0)
  end
  begin
     id 4 
     name lfoot
     direction 0.216943 -0.596046 0.773088   
     length 2.27918   
     axis -90 7.62852e-016 20   XYZ
    dof rx rz
    limits (-45.0 90.0)
           (-70.0 20.0)
  end
  begin
     id 5 
     name ltoes
     direction 1.53519e-011 -4.21748e-011 1   
     length 1.05562   
     axis -90 7.62852e-016 20   XYZ
    dof rx
    limits (-90.0 20.0)
  end
  begin
     id 6 
     name rhipjoint
     direction -0.576368 -0.719173 0.38806   
     length 2.1142  
     axis 0 0 0  XYZ 
  end
  begin
     id 7 
     name rfemur
     direction -0.34202 -0.939693 0   
     length 7.07928   
     axis 0 0 -20   XYZ
    dof rx ry rz
    limits (-160.0 20.0)
           (-70.0 70.0)
           (-70.0 60.0)
  end
  begin
     id 8 
     name rtibia
     direction -0.34202 -0.939693 0   
     length 5.79974   
     axis 0 0 -20   XYZ
    dof rx
    limits (-10.0 170.0)
 end
 begin
     id 9 
     name rfoot
     direction -0.189288 -0.520065 0.832888   
     length 2.42173  
     axis -90 -7.62852e-016 -20   XYZ
    dof rx rz
    limits (-45.0 90.0)
           (-20.0 70.0)
  end
  begin
     id 10 
     name rtoes
     direction -1.53574e-011 -4.21658e-011 1   
     length 1.14469   
     axis -90 -7.62852e-016 -20   XYZ
    dof rx
    limits (-90.0 20.0)
  end
  begin
     id 11 
     name lowerback
     direction -0.00135702 0.993803 0.111144   
     length 1.91308   
     axis 0 0 0   XYZ
    dof rx ry rz
    limits (-20.0 45.0)
           (-30.0 30.0)
           (-30.0 30.0)
  end
  begin
     id 12 
     name upperback
     direction -0.0056745 0.999813 0.0184631   
     length 1.9212   
     axis 0 0 0   XYZ
    dof rx ry rz
    limits (-20.0 45.0)
           (-30.0 30.0)
           (-30.0 30.0)
  end
  begin
     id 13 
     name thorax
     direction -0.00733434 0.999426 -0.0330788   
     length 1.94196   
     axis 0 0 0   XYZ
    dof rx ry rz
    limits (-20.0 45.0)
           (-30.0 30.0)
           (-30.0 30.0)
  end
  begin
     id 14 
     name lowerneck
     direction 0.0563074 0.996944 -0.0541571   
     length 2.34257   
     axis 0 0 0   XYZ
    dof rx ry rz
    limits (-20.0 45.0)
           (-30.0 30.0)
           (-30.0 30.0)
  end
  begin
     id 15 
     name upperneck
     direction -0.0544519 0.976166 -0.210085   
     length 2.32506   
     axis 0 0 0   XYZ
    dof rx ry rz
    limits (-20.0 45.0)
           (-30.0 30.0)
           (-30.0 30.0)
  end
  begin
     id 16
     name head
     direction -0.0226035 0.997615 -0.0652205  
     length 2.3648  
     axis 0 0 0   XYZ
    dof rx ry rz
    limits (-20.0 45.0)
           (-30.0 30.0)
           (-30.0 30.0)
  end
  begin
     id 17 
     name lclavicle
     direction 0.92109 0.381297 -0.0787716  
     length 4.0487  
     axis 0 0 0   XYZ
    dof ry rz
    limits (-20.0 10.0)
           (0.0 20.0)
  end
  begin
     id 18 
     name lhumerus
     direction 1 -4.48986e-011 3.56724e-027   
     length 4.94991   
     axis 180 -30 -90   XYZ
    dof rx ry rz
    limits (-60.0 90.0)
           (-90.0 90.0)
           (-90.0 90.0)
  end
  begin
     id 19
     name lradius
     direction 1 -4.48981e-011 8.62147e-027   
     length 2.7606   
     axis 180 -30 -90   XYZ
    dof rx
    limits (-10.0 170.0)
  end
  begin
     id 20
     name lwrist
     direction 1 -4.48989e-011 1.59799e-026   
     length 1.3803   
     axis -1.17785e-014 90 90   XYZ
    dof ry
    limits (-180.0 0.0)
 end
  begin
     id 21 
     name lhand
     direction 1 -4.48896e-011 3.19599e-026   
     length 0.843936   
     axis -2.03931e-014 90 90   XYZ
    dof rx rz
    limits (-90.0 90.0)
           (-45.0 45.0)
  end
  begin
     id 22 
     name lfingers
     direction 1 -4.48887e-011 6.39197e-026   
     length 0.680403   
     axis -4.07862e-014 90 90   XYZ
    dof rx
    limits (0.0 90.0)
  end
  begin
     id 23
     name lthumb
     direction 0.707107 -6.348e-011 0.707107   
     length 0.976926   
     axis -90 45 2.85299e-015   XYZ
    dof rx rz
    limits (-45.0 45.0)
           (-45.0 45.0)
  end
  begin
     id 24 
     name rclavicle
     direction -0.951104 0.307692 -0.026953   
     length 4.21801  
     axis 0 0 0   XYZ 
    dof ry rz
    limits (-10.0 20.0)
           (-20.0 0.0)
  end
  begin
     id 25 
     name rhumerus
     direction -1 -4.4896e-011 -1.8171e-018  
     length 4.32982   
     axis 180 30 90   XYZ
    dof rx ry rz
    limits (-90.0 60.0)
           (-90.0 90.0)
           (-90.0 90.0)
  end
  begin
     id 26 
     name rradius
     direction -1 -4.48959e-011 8.25165e-027   
     length 3.20057   
     axis 180 30 90   XYZ
    dof rx
    limits (-10.0 170.0)
  end
  begin
     id 27 
     name rwrist
     direction -1 -4.48997e-011 1.59799e-026   
     length 1.60029   
     axis -1.17785e-014 -90 -90   XYZ
    dof ry
    limits (-180.0 0.0)
  end
  begin
     id 28
     name rhand
     direction -1 -4.49023e-011 3.19599e-026   
     length 0.960433   
     axis -2.03931e-014 -90 -90   XYZ
    dof rx rz
    limits (-90.0 90.0)
           (-45.0 45.0)
  end
  begin
     id 29
     name rfingers
     direction -1 -4.48802e-011 6.39197e-026   
     length 0.774326   
     axis -4.07862e-014 -90 -90   XYZ
    dof rx
    limits (0.0 90.0)
  end
  begin
     id 30
     name rthumb
     direction -0.707107 -6.34876e-011 0.707107   
     length 1.11178   
     axis -90 -45 -2.85299e-015   XYZ
    dof rx rz
    limits (-45.0 45.0)
           (-45.0 45.0)
  end
:hierarchy
  begin
    root lhipjoint rhipjoint lowerback
    lhipjoint lfemur
    lfemur ltibia
    ltibia lfoot
    lfoot ltoes
    rhipjoint rfemur
    rfemur rtibia
    rtibia rfoot
    rfoot rtoes
    lowerback upperback
    upperback thorax
    thorax lowerneck lclavicle rclavicle
    lowerneck upperneck
    upperneck head
    lclavicle lhumerus
    lhumerus lradius
    lradius lwrist
    lwrist lhand lthumb
    lhand lfingers
    rclavicle rhumerus
    rhumerus rradius
    rradius rwrist
    rwrist rhand rthumb
    rhand rfingers
end

#!OML:ASF C:\KaitlinTest1\Natural Motions\Nikki\Session 2\Nikki.ASF
:FULLY-SPECIFIED
:DEGREES
71
root -18.8775 16.6262 5.02575 -154.33 85.6171 -164.029
lowerback -13.1396 -1.62298 0.319338
upperback -3.93977 -2.00032 -0.359531
thorax 3.19768 -0.918449 -0.862423
lowerneck -1.84297 1.75493 8.39792
upperneck 27.2514 4.10928 -5.68302
head 9.0836 2.64772 -3.00333
rclavicle 4.84538e-015 7.15625e-015
rhumerus -42.0291 -22.2322 -78.8922
rradius 18.0795
rwrist 29.2716
rhand -36.0501 3.17823
rfingers 7.12502
rthumb -9.15813 -26.6029
lclavicle 4.84538e-015 7.15625e-015
lhumerus -41.6671 13.3629 82.3345
lradius 24.1724
lwrist -36.7243
lhand -32.7428 4.11461
lfingers 7.12502
lthumb -5.96588 34.0106
rfemur -7.19365 -16.2126 20.9042
rtibia 10.7097
rfoot -10.4226 11.2733
rtoes 9.22361e-014
lfemur -9.86313 11.9077 -17.8488
ltibia 10.1281
lfoot -2.37185 -16.7889
ltoes 6.99722e-014
72
root -18.876 16.6261 5.02515 -154.039 85.6284 -163.722
lowerback -13.1245 -1.61279 0.342224
upperback -3.93688 -1.99027 -0.357395
thorax 3.19194 -0.913632 -0.871133
lowerneck -1.8063 1.75293 8.40779
upperneck 27.2213 4.11288 -5.70763
head 9.06692 2.64825 -3.01342
rclavicle 1.68967e-015 -2.38542e-015
rhumerus -42.0435 -22.2523 -78.8602
rradius 18.0821
rwrist 29.35
rhand -36.0418 3.2031
rfingers 7.12502
rthumb -9.15015 -26.5784
lclavicle 1.68967e-015 -2.38542e-015
lhumerus -41.6719 13.5076 82.2443
lradius 24.1605
lwrist -36.8507
lhand -32.734 4.01117
lfingers 7.12502
lthumb -5.95742 33.9074
rfemur -7.17427 -16.1609 20.9105
rtibia 10.7207
rfoot -10.4391 11.2465
rtoes -2.54444e-014
lfemur -9.83031 11.9094 -17.8288
ltibia 10.1158
lfoot -2.38823 -16.7615
ltoes 3.97569e-014
73
root -18.8757 16.6264 5.02383 -154.097 85.6408 -163.791
lowerback -13.1201 -1.61384 0.343819
upperback -3.93966 -1.99154 -0.363469
thorax 3.18637 -0.914284 -0.878374
lowerneck -1.85515 1.75756 8.44041
upperneck 27.272 4.12876 -5.75832
head 9.09669 2.65449 -3.03542
rclavicle -2.18166e-014 -5.56597e-015
rhumerus -42.0249 -22.1828 -78.906
rradius 18.1085
rwrist 29.2795
rhand -35.9768 3.04807
rfingers 7.12502
rthumb -9.08746 -26.7362
lclavicle -2.18166e-014 -5.56597e-015
lhumerus -41.6735 13.6444 82.164
lradius 24.1404
lwrist -37.0607
lhand -32.7309 3.98479
lfingers 7.12502
lthumb -5.95438 33.8811
rfemur -7.18636 -16.2029 20.9022
rtibia 10.7172
rfoot -10.4408 11.2967
rtoes -6.04305e-014
lfemur -9.84551 11.9147 -17.8472
ltibia 10.1282
lfoot -2.39 -16.7511
ltoes 3.18055e-015
74
root -18.8748 16.6268 5.0236 -154.06 85.6273 -163.776
lowerback -13.1385 -1.62276 0.332944
upperback -3.95039 -2.00164 -0.35235
thorax 3.18578 -0.918974 -0.86257
lowerneck -1.83934 1.76055 8.4241
upperneck 27.2696 4.13471 -5.75071
head 9.09288 2.65685 -3.02953
rclavicle 6.33626e-015 3.18055e-015
rhumerus -42.0223 -22.1407 -78.9033
rradius 18.1136
rwrist 29.29
rhand -36.0181 3.11287
rfingers 7.12502
rthumb -9.12724 -26.6696
lclavicle 6.33626e-015 3.18055e-015
lhumerus -41.6619 13.3601 82.3772
lradius 24.186
lwrist -36.5844
lhand -32.7655 4.15587
lfingers 7.12502
lthumb -5.9878 34.0513
rfemur -7.20279 -16.2206 20.9149
rtibia 10.7056
rfoot -10.4687 11.3004
rtoes -7.15625e-015
lfemur -9.87773 11.9437 -17.8446
ltibia 10.1434
lfoot -2.39549 -16.7917
ltoes -1.59028e-014
75
root -18.8729 16.6262 5.02271 -153.947 85.6434 -163.665
lowerback -13.1475 -1.61616 0.33076
upperback -3.94959 -1.99238 -0.356832
thorax 3.19153 -0.914335 -0.864853
lowerneck -1.82867 1.76097 8.4322
upperneck 27.26 4.13138 -5.73818
head 9.08729 2.65721 -3.02686
rclavicle -1.67476e-014 -4.37326e-015
rhumerus -42.0207 -22.1368 -78.9051
rradius 18.1267
rwrist 29.2405
rhand -35.9908 3.09222
rfingers 7.12502
rthumb -9.10097 -26.6914
lclavicle -1.67476e-014 -4.37326e-015
lhumerus -41.6841 13.4896 82.2792
lradius 24.2076
lwrist -36.7648
lhand -32.7233 4.09104
lfingers 7.12502
lthumb -5.94704 33.9876
rfemur -7.19771 -16.2437 20.9103
rtibia 10.7124
rfoot -10.4935 11.3321
rtoes 2.38542e-015
lfemur -9.86768 11.9857 -17.8484
ltibia 10.1378
lfoot -2.41187 -16.808
ltoes -1.90833e-014
76
root -18.8732 16.6265 5.02222 -154.217 85.634 -163.936
lowerback -13.1196 -1.61916 0.313253
upperback -3.95499 -1.99348 -0.370718
thorax 3.17087 -0.915051 -0.868714
lowerneck -1.83101 1.75788 8.45686
upperneck 27.2651 4.12623 -5.74414
head 9.0898 2.65681 -3.03368
rclavicle 1.25731e-014 -5.56597e-015
rhumerus -42.0291 -22.235 -78.8405
rradius 18.0894
rwrist 29.365
rhand -35.9707 3.07552
rfingers 7.12502
rthumb -9.08155 -26.709
lclavicle 1.25731e-014 -5.56597e-015
lhumerus -41.8425 15.4459 81.0332
lradius 24.0861
lwrist -39.0746
lhand -32.5898 3.56962
lfingers 7.12502
lthumb -5.81823 33.4697
rfemur -7.20433 -16.2292 20.8932
rtibia 10.7252
rfoot -10.4888 11.301
rtoes -3.49861e-014
lfemur -9.86646 11.9516 -17.864
ltibia 10.1277
lfoot -2.40159 -16.7811
ltoes -1.90833e-014
77
root -18.8725 16.6268 5.02221 -154.068 85.6233 -163.797
lowerback -13.1338 -1.62693 0.305689
upperback -3.95516 -2.0036 -0.348037
thorax 3.17931 -0.919919 -0.842811
lowerneck -1.84351 1.75806 8.42102
upperneck 27.2869 4.13222 -5.74687
head 9.09944 2.65628 -3.02798
rclavicle 6.31141e-015 3.97569e-015
rhumerus -41.9834 -22.1194 -78.8866
rradius 18.1065
rwrist 29.2456
rhand -35.987 3.06051
rfingers 7.12502
rthumb -9.09728 -26.7233
lclavicle 6.31141e-015 3.97569e-015
lhumerus -41.7294 14.3315 81.7629
lradius 24.1628
lwrist -37.7616
lhand -32.6438 3.86289
lfingers 7.12502
lthumb -5.87034 33.7616
rfemur -7.21058 -16.2214 20.9061
rtibia 10.7228
rfoot -10.477 11.2991
rtoes 3.10104e-014
lfemur -9.87099 11.9538 -17.8517
ltibia 10.1188
lfoot -2.39847 -16.7983
ltoes 2.70347e-014
